<?xml version="1.0" encoding="UTF-8"?>
<svg width="314px" height="77px" viewBox="0 0 314 77" version="1.1" xmlns="http://www.w3.org/2000/svg" xmlns:xlink="http://www.w3.org/1999/xlink">
    <!-- Generator: Sketch 51.2 (57519) - http://www.bohemiancoding.com/sketch -->
    <title>Logo-Pharmacie-ULB</title>
    <desc>Created with Sketch.</desc>
    <defs>
        <polygon id="path-1" points="0 0.0568909091 18.2356595 0.0568909091 18.2356595 20.3633075 0 20.3633075"></polygon>
        <polygon id="path-3" points="0.567730952 0.00254545455 17.390246 0.00254545455 17.390246 19.7264455 0.567730952 19.7264455"></polygon>
        <polygon id="path-5" points="0 0.0568909091 18.2356595 0.0568909091 18.2356595 20.3633075 0 20.3633075"></polygon>
        <polygon id="path-7" points="0.567730952 0.00254545455 17.390246 0.00254545455 17.390246 19.7264455 0.567730952 19.7264455"></polygon>
    </defs>
    <g id="Logo-Pharmacie-ULB" stroke="none" stroke-width="1" fill="none" fill-rule="evenodd">
        <rect fill="#FFFFFF" x="0" y="0" width="314" height="77"></rect>
        <g id="Page-1-Copy" transform="translate(1.232910, 0.973145)">
            <polygon id="Fill-1" fill="#166F26" points="0 75 75 75 75 0 0 0"></polygon>
            <g id="Page-1" transform="translate(10.000000, 26.000000)">
                <polygon id="Fill-1" fill="#6EB67B" points="29.1947976 17.2889818 34.1641786 17.2889818 34.1641786 12.2776182"></polygon>
                <polygon id="Fill-2" fill="#FFFFFE" points="20.0016321 0.636554545 20.0016321 3.59691818 22.349406 3.59691818 22.349406 17.3996455 20.0016321 17.3996455 20.0016321 20.3606455 34.1639893 20.3606455 34.1639893 17.2889182 27.0096202 17.2889182 27.0096202 3.59691818 29.6141917 3.59691818 29.6141917 0.636554545"></polygon>
                <g id="Group-9" transform="translate(0.000000, 0.633945)">
                    <g id="Group-5">
                        <mask id="mask-2" fill="white">
                            <use xlink:href="#path-1"></use>
                        </mask>
                        <g id="Clip-4"></g>
                        <path d="M13.6492667,18.9708909 C15.3982667,17.5454364 15.778731,15.9691636 15.777469,13.5878909 L15.7749452,3.02043636 L18.2356595,3.01789091 L18.2356595,0.0568909091 L11.0049452,0.0594363636 L11.0049452,3.02043636 L12.5482548,3.01789091 L12.5482548,14.0868 C12.5482548,15.6395273 11.2951833,16.8938 9.75629048,16.8950727 C7.74418333,16.8969818 6.96937381,15.6369818 6.96937381,14.0848909 L6.96937381,14.0683455 L6.96937381,3.01534545 L8.58587381,3.01789091 L8.71837381,0.0568909091 L0.13237381,0.0568909091 L-0.000126190476,3.01789091 L2.30221905,3.01789091 L2.31168333,13.3422545 C2.31168333,15.4810727 2.35080238,16.7118 3.47263571,18.2778909 C4.47963571,19.6836182 6.23305238,20.3702545 9.03321905,20.3632545 C11.0055762,20.3588 12.5438381,19.8719818 13.6492667,18.9708909" id="Fill-3" fill="#FFFFFE" mask="url(#mask-2)"></path>
                    </g>
                    <g id="Group-8" transform="translate(35.333333, 0.000000)">
                        <mask id="mask-4" fill="white">
                            <use xlink:href="#path-3"></use>
                        </mask>
                        <g id="Clip-7"></g>
                        <path d="M9.54996905,16.6572636 C11.5431476,16.6477182 12.4479333,15.6556273 12.4536119,13.9005364 C12.4586595,12.0919909 11.2516476,10.8479 9.54239762,10.8421727 L7.6836119,10.8453545 L7.68550476,16.6572636 L9.54996905,16.6572636 Z M9.30705238,7.99380909 C10.8983143,7.99826364 11.7885881,7.04499091 11.7930048,5.51899091 C11.7974214,3.9459 10.7878976,2.96526364 9.30200476,2.96080909 L7.68550476,2.96271818 L7.68550476,7.99571818 L9.30705238,7.99380909 Z M15.1250643,9.81953636 C16.4866595,10.7740818 17.38135,12.3408091 17.3901833,14.2308091 C17.4059571,17.1943545 14.439219,19.7289909 11.7027786,19.7251727 L0.680040476,19.7264455 L0.677516667,16.6553545 L2.91613571,16.6553545 L2.91613571,2.96271818 L0.567730952,2.96271818 L0.567730952,0.00235454545 L11.7217071,0.00235454545 C14.4606714,0.00235454545 16.6835167,2.15899091 16.6835167,4.85271818 C16.6835167,6.07326364 16.0796952,7.51462727 15.1181238,8.4049 L13.8000643,9.23280909 L15.1250643,9.81953636 Z" id="Fill-6" fill="#FFFFFE" mask="url(#mask-4)"></path>
                    </g>
                </g>
            </g>
        </g>
        <g id="Page-1-Copy" transform="translate(1.232910, 0.973145)">
            <polygon id="Fill-1" fill="#166F26" points="0 75 75 75 75 0 0 0"></polygon>
            <g id="Page-1" transform="translate(10.000000, 26.000000)">
                <polygon id="Fill-1" fill="#6EB67B" points="29.1947976 17.2889818 34.1641786 17.2889818 34.1641786 12.2776182"></polygon>
                <polygon id="Fill-2" fill="#FFFFFE" points="20.0016321 0.636554545 20.0016321 3.59691818 22.349406 3.59691818 22.349406 17.3996455 20.0016321 17.3996455 20.0016321 20.3606455 34.1639893 20.3606455 34.1639893 17.2889182 27.0096202 17.2889182 27.0096202 3.59691818 29.6141917 3.59691818 29.6141917 0.636554545"></polygon>
                <g id="Group-9" transform="translate(0.000000, 0.633945)">
                    <g id="Group-5">
                        <mask id="mask-6" fill="white">
                            <use xlink:href="#path-5"></use>
                        </mask>
                        <g id="Clip-4"></g>
                        <path d="M13.6492667,18.9708909 C15.3982667,17.5454364 15.778731,15.9691636 15.777469,13.5878909 L15.7749452,3.02043636 L18.2356595,3.01789091 L18.2356595,0.0568909091 L11.0049452,0.0594363636 L11.0049452,3.02043636 L12.5482548,3.01789091 L12.5482548,14.0868 C12.5482548,15.6395273 11.2951833,16.8938 9.75629048,16.8950727 C7.74418333,16.8969818 6.96937381,15.6369818 6.96937381,14.0848909 L6.96937381,14.0683455 L6.96937381,3.01534545 L8.58587381,3.01789091 L8.71837381,0.0568909091 L0.13237381,0.0568909091 L-0.000126190476,3.01789091 L2.30221905,3.01789091 L2.31168333,13.3422545 C2.31168333,15.4810727 2.35080238,16.7118 3.47263571,18.2778909 C4.47963571,19.6836182 6.23305238,20.3702545 9.03321905,20.3632545 C11.0055762,20.3588 12.5438381,19.8719818 13.6492667,18.9708909" id="Fill-3" fill="#FFFFFE" mask="url(#mask-6)"></path>
                    </g>
                    <g id="Group-8" transform="translate(35.333333, 0.000000)">
                        <mask id="mask-8" fill="white">
                            <use xlink:href="#path-7"></use>
                        </mask>
                        <g id="Clip-7"></g>
                        <path d="M9.54996905,16.6572636 C11.5431476,16.6477182 12.4479333,15.6556273 12.4536119,13.9005364 C12.4586595,12.0919909 11.2516476,10.8479 9.54239762,10.8421727 L7.6836119,10.8453545 L7.68550476,16.6572636 L9.54996905,16.6572636 Z M9.30705238,7.99380909 C10.8983143,7.99826364 11.7885881,7.04499091 11.7930048,5.51899091 C11.7974214,3.9459 10.7878976,2.96526364 9.30200476,2.96080909 L7.68550476,2.96271818 L7.68550476,7.99571818 L9.30705238,7.99380909 Z M15.1250643,9.81953636 C16.4866595,10.7740818 17.38135,12.3408091 17.3901833,14.2308091 C17.4059571,17.1943545 14.439219,19.7289909 11.7027786,19.7251727 L0.680040476,19.7264455 L0.677516667,16.6553545 L2.91613571,16.6553545 L2.91613571,2.96271818 L0.567730952,2.96271818 L0.567730952,0.00235454545 L11.7217071,0.00235454545 C14.4606714,0.00235454545 16.6835167,2.15899091 16.6835167,4.85271818 C16.6835167,6.07326364 16.0796952,7.51462727 15.1181238,8.4049 L13.8000643,9.23280909 L15.1250643,9.81953636 Z" id="Fill-6" fill="#FFFFFE" mask="url(#mask-8)"></path>
                    </g>
                </g>
            </g>
        </g>
        <path d="M93.4014375,17.8151445 L93.1154375,19.5531445 L87.6374375,19.5531445 L87.6374375,24.1511445 L92.1254375,24.1511445 L92.1254375,25.8671445 L87.6374375,25.8671445 L87.6374375,32.9731445 L85.5034375,32.9731445 L85.5034375,17.8151445 L93.4014375,17.8151445 Z M105.177437,32.9731445 L102.801437,32.9731445 L101.459438,28.6831445 L96.2014375,28.6831445 L94.8814375,32.9731445 L92.6814375,32.9731445 L97.6534375,17.7931445 L100.293437,17.7931445 L105.177437,32.9731445 Z M100.997437,26.9231445 C100.733437,26.2191445 99.1494375,20.7851445 98.9514375,19.9051445 L98.8194375,19.9051445 C98.5994375,20.7631445 96.9934375,26.1971445 96.7294375,26.9231445 L100.997437,26.9231445 Z M116.337437,31.9391445 C115.171437,32.7751445 113.785438,33.1931445 112.245437,33.1931445 C110.265437,33.1931445 108.681438,32.3791445 107.537437,30.9271445 C106.459437,29.5411445 105.887438,27.7151445 105.887438,25.5151445 C105.887438,23.7551445 106.239437,22.2371445 106.877437,21.0051445 C107.999437,18.8491445 110.001437,17.5291445 112.333438,17.5291445 C113.763437,17.5291445 115.105437,17.9471445 116.051437,18.7171445 L115.017437,20.1031445 C114.181437,19.4871445 113.345438,19.2231445 112.333438,19.2231445 C110.837437,19.2231445 109.671437,19.9931445 108.967437,21.4011445 C108.483437,22.3691445 108.241437,23.6451445 108.241437,25.4711445 C108.241437,27.1651445 108.417438,28.1551445 108.791438,29.0351445 C109.495437,30.7071445 110.903437,31.4991445 112.509437,31.4991445 C113.675437,31.4991445 114.489437,31.1911445 115.303438,30.5531445 L116.337437,31.9391445 Z M128.685437,28.2211445 C128.685437,30.1351445 128.575437,30.5971445 127.893438,31.4331445 C127.123437,32.3791445 125.869438,33.2151445 123.537437,33.2151445 C121.249437,33.2151445 119.731437,32.4891445 118.961437,31.1031445 C118.565438,30.3991445 118.477437,29.9811445 118.477437,28.3971445 L118.477437,17.8151445 L120.611437,17.8151445 L120.611437,27.6051445 C120.611437,28.7051445 120.721437,30.0471445 121.161438,30.5531445 C121.579437,31.0371445 122.349437,31.4111445 123.559438,31.4111445 C124.703437,31.4111445 125.539437,31.0591445 126.023438,30.4211445 C126.397437,29.9371445 126.573437,29.1231445 126.573437,27.9131445 L126.573437,17.8151445 L128.685437,17.8151445 L128.685437,28.2211445 Z M139.955437,31.2131445 L139.603437,32.9731445 L132.035438,32.9731445 L132.035438,17.8151445 L134.191438,17.8151445 L134.191438,31.2131445 L139.955437,31.2131445 Z M148.761437,17.8151445 L148.541438,19.5751445 L144.603437,19.5751445 L144.603437,32.9731445 L142.513438,32.9731445 L142.513438,19.5751445 L138.575437,19.5751445 L138.575437,17.8151445 L148.761437,17.8151445 Z M158.403437,32.9731445 L149.911437,32.9731445 L149.911437,17.8151445 L158.161437,17.8151445 L157.875437,19.5531445 L152.067437,19.5531445 L152.067437,24.1731445 L156.929438,24.1731445 L156.929438,25.9551445 L152.067437,25.9551445 L152.067437,31.1471445 L158.403437,31.1471445 L158.403437,32.9731445 Z M157.149437,14.8231445 L152.375437,17.0671445 L151.737437,15.8791445 L156.159437,12.9531445 L157.149437,14.8231445 Z M96.0414375,51.4051445 C96.0414375,53.8691445 95.4034375,55.6731445 94.3914375,56.9271445 C93.3354375,58.2471445 91.9274375,58.9731445 89.2874375,58.9731445 L85.5034375,58.9731445 L85.5034375,43.8151445 L89.0234375,43.8151445 C91.6414375,43.8151445 93.3134375,44.4091445 94.6994375,46.3231445 C95.6014375,47.5771445 96.0414375,49.3151445 96.0414375,51.4051445 Z M93.6874375,51.6691445 C93.6874375,49.5571445 93.4674375,47.9951445 92.5654375,46.8511445 C91.7294375,45.7951445 90.8494375,45.5091445 89.3754375,45.5091445 L87.6594375,45.5091445 L87.6594375,57.2351445 L89.3314375,57.2351445 C91.0694375,57.2351445 92.1914375,56.7731445 92.8734375,55.5411445 C93.4234375,54.5291445 93.6874375,53.1651445 93.6874375,51.6691445 Z M107.333438,58.9731445 L98.8414375,58.9731445 L98.8414375,43.8151445 L107.091437,43.8151445 L106.805437,45.5531445 L100.997438,45.5531445 L100.997438,50.1731445 L105.859437,50.1731445 L105.859437,51.9551445 L100.997438,51.9551445 L100.997438,57.1471445 L107.333438,57.1471445 L107.333438,58.9731445 Z M123.471438,48.2151445 C123.471438,49.9311445 122.965438,51.0751445 121.623437,52.1091445 C120.853437,52.7031445 120.039437,53.0331445 118.433437,53.0331445 L115.925438,53.0331445 L115.925438,58.9731445 L113.813437,58.9731445 L113.813437,43.8151445 L117.861437,43.8151445 C119.819437,43.8151445 120.655438,44.0131445 121.469437,44.5191445 C122.767437,45.3331445 123.471438,46.6091445 123.471438,48.2151445 Z M121.117437,48.4571445 C121.117437,47.4891445 120.875438,46.7851445 120.369438,46.3011445 C119.841437,45.7951445 119.093437,45.5531445 117.905438,45.5531445 L115.925438,45.5531445 L115.925438,51.3171445 L118.301437,51.3171445 C119.335437,51.3171445 119.995437,51.0751445 120.479437,50.4591445 C120.897437,49.9311445 121.117437,49.3151445 121.117437,48.4571445 Z M135.511437,58.9731445 L133.377437,58.9731445 L133.377437,51.7791445 L127.591437,51.7791445 L127.591437,58.9731445 L125.501437,58.9731445 L125.501437,43.8151445 L127.591437,43.8151445 L127.591437,50.0411445 L133.377437,50.0411445 L133.377437,43.8151445 L135.511437,43.8151445 L135.511437,58.9731445 Z M149.597438,58.9731445 L147.221437,58.9731445 L145.879437,54.6831445 L140.621438,54.6831445 L139.301437,58.9731445 L137.101438,58.9731445 L142.073438,43.7931445 L144.713437,43.7931445 L149.597438,58.9731445 Z M145.417438,52.9231445 C145.153437,52.2191445 143.569437,46.7851445 143.371438,45.9051445 L143.239438,45.9051445 C143.019437,46.7631445 141.413437,52.1971445 141.149438,52.9231445 L145.417438,52.9231445 Z M161.109438,58.9731445 L158.535438,58.9731445 C158.095438,58.1151445 157.897437,57.7631445 157.281437,56.7291445 C156.115437,54.7931445 155.741438,54.1551445 154.663437,52.9451445 C154.267437,52.5051445 153.937437,52.2851445 153.299438,52.2631445 L153.299438,58.9731445 L151.187437,58.9731445 L151.187437,43.8151445 L155.433437,43.8151445 C157.237437,43.8151445 158.293437,44.2331445 159.019437,44.9151445 C159.701437,45.5531445 160.361437,46.5651445 160.361437,48.0391445 C160.361437,50.3491445 158.909437,52.1971445 156.489438,52.1971445 L156.313437,52.1971445 C156.973437,52.7471445 157.171437,52.9891445 157.633438,53.6051445 C157.941438,54.0231445 158.403437,54.6831445 158.909437,55.4751445 L161.109438,58.9731445 Z M158.139437,48.0611445 C158.139437,47.0051445 157.567437,46.1691445 156.731437,45.8391445 C156.291438,45.6631445 155.675437,45.5531445 154.883438,45.5531445 L153.299438,45.5531445 L153.299438,50.8331445 L154.773438,50.8331445 C156.115437,50.8331445 156.863438,50.6131445 157.391437,50.1071445 C157.853437,49.6671445 158.139437,48.9411445 158.139437,48.0611445 Z M177.527437,58.9731445 L175.415437,58.9731445 L174.623437,48.6551445 C174.557437,47.8411445 174.535438,46.6311445 174.513438,46.1911445 L174.469437,46.1911445 C174.381438,46.6311445 174.161437,47.6431445 173.919438,48.4571445 L170.905438,58.9731445 L169.079437,58.9731445 L166.307437,48.9411445 C165.977438,47.7751445 165.735437,46.6531445 165.625437,46.1691445 L165.581437,46.1691445 C165.559438,46.6971445 165.493437,48.1491445 165.427437,48.9411445 L164.657438,58.9731445 L162.589438,58.9731445 L163.953438,43.8151445 L166.923437,43.8151445 L169.475437,53.1211445 C169.805437,54.3531445 169.981437,55.2771445 170.025438,55.6071445 L170.069437,55.6071445 C170.135437,55.2331445 170.311438,54.2431445 170.597438,53.2311445 L173.237437,43.8151445 L176.229437,43.8151445 L177.527437,58.9731445 Z M191.063437,58.9731445 L188.687437,58.9731445 L187.345438,54.6831445 L182.087437,54.6831445 L180.767437,58.9731445 L178.567437,58.9731445 L183.539437,43.7931445 L186.179438,43.7931445 L191.063437,58.9731445 Z M186.883438,52.9231445 C186.619438,52.2191445 185.035438,46.7851445 184.837437,45.9051445 L184.705438,45.9051445 C184.485437,46.7631445 182.879437,52.1971445 182.615437,52.9231445 L186.883438,52.9231445 Z M202.223437,57.9391445 C201.057437,58.7751445 199.671437,59.1931445 198.131438,59.1931445 C196.151437,59.1931445 194.567437,58.3791445 193.423437,56.9271445 C192.345438,55.5411445 191.773438,53.7151445 191.773438,51.5151445 C191.773438,49.7551445 192.125437,48.2371445 192.763438,47.0051445 C193.885437,44.8491445 195.887437,43.5291445 198.219437,43.5291445 C199.649437,43.5291445 200.991437,43.9471445 201.937437,44.7171445 L200.903437,46.1031445 C200.067437,45.4871445 199.231437,45.2231445 198.219437,45.2231445 C196.723437,45.2231445 195.557437,45.9931445 194.853437,47.4011445 C194.369438,48.3691445 194.127437,49.6451445 194.127437,51.4711445 C194.127437,53.1651445 194.303437,54.1551445 194.677437,55.0351445 C195.381438,56.7071445 196.789437,57.4991445 198.395437,57.4991445 C199.561438,57.4991445 200.375437,57.1911445 201.189437,56.5531445 L202.223437,57.9391445 Z M206.739438,58.9731445 L204.583438,58.9731445 L204.583438,43.8151445 L206.739438,43.8151445 L206.739438,58.9731445 Z M218.691438,58.9731445 L210.199437,58.9731445 L210.199437,43.8151445 L218.449437,43.8151445 L218.163437,45.5531445 L212.355437,45.5531445 L212.355437,50.1731445 L217.217438,50.1731445 L217.217438,51.9551445 L212.355437,51.9551445 L212.355437,57.1471445 L218.691438,57.1471445 L218.691438,58.9731445 Z" id="Faculté-de-pharmacie" fill="#000000"></path>
    </g>
</svg>